<svg id="visual" viewBox="0 0 900 600" width="900" height="600" xmlns="http://www.w3.org/2000/svg" xmlns:xlink="http://www.w3.org/1999/xlink" version="1.1"><path d="M0 278L21.5 266.2C43 254.3 86 230.7 128.8 230.7C171.7 230.7 214.3 254.3 257.2 255.7C300 257 343 236 385.8 233C428.7 230 471.3 245 514.2 260.3C557 275.7 600 291.3 642.8 295.7C685.7 300 728.3 293 771.2 283.8C814 274.7 857 263.3 878.5 257.7L900 252L900 601L878.5 601C857 601 814 601 771.2 601C728.3 601 685.7 601 642.8 601C600 601 557 601 514.2 601C471.3 601 428.7 601 385.8 601C343 601 300 601 257.2 601C214.3 601 171.7 601 128.8 601C86 601 43 601 21.5 601L0 601Z" fill="#f0aa14"></path><path d="M0 313L21.5 327.5C43 342 86 371 128.8 375.8C171.7 380.7 214.3 361.3 257.2 357.7C300 354 343 366 385.8 374C428.7 382 471.3 386 514.2 380.7C557 375.3 600 360.7 642.8 349C685.7 337.3 728.3 328.7 771.2 337.5C814 346.3 857 372.7 878.5 385.8L900 399L900 601L878.5 601C857 601 814 601 771.2 601C728.3 601 685.7 601 642.8 601C600 601 557 601 514.2 601C471.3 601 428.7 601 385.8 601C343 601 300 601 257.2 601C214.3 601 171.7 601 128.8 601C86 601 43 601 21.5 601L0 601Z" fill="#bbad00"></path><path d="M0 424L21.5 417.7C43 411.3 86 398.7 128.8 393.5C171.7 388.3 214.3 390.7 257.2 398.5C300 406.3 343 419.7 385.8 424.5C428.7 429.3 471.3 425.7 514.2 427.5C557 429.3 600 436.7 642.8 444.8C685.7 453 728.3 462 771.2 467.3C814 472.7 857 474.3 878.5 475.2L900 476L900 601L878.5 601C857 601 814 601 771.2 601C728.3 601 685.7 601 642.8 601C600 601 557 601 514.2 601C471.3 601 428.7 601 385.8 601C343 601 300 601 257.2 601C214.3 601 171.7 601 128.8 601C86 601 43 601 21.5 601L0 601Z" fill="#83ab00"></path><path d="M0 506L21.5 513.3C43 520.7 86 535.3 128.8 538.8C171.7 542.3 214.3 534.7 257.2 530C300 525.3 343 523.7 385.8 524.5C428.7 525.3 471.3 528.7 514.2 531.5C557 534.3 600 536.7 642.8 531.3C685.7 526 728.3 513 771.2 499.8C814 486.7 857 473.3 878.5 466.7L900 460L900 601L878.5 601C857 601 814 601 771.2 601C728.3 601 685.7 601 642.8 601C600 601 557 601 514.2 601C471.3 601 428.7 601 385.8 601C343 601 300 601 257.2 601C214.3 601 171.7 601 128.8 601C86 601 43 601 21.5 601L0 601Z" fill="#2ea70a"></path></svg>